<?xml version="1.0" encoding="UTF-8"?>
<svg xmlns="http://www.w3.org/2000/svg" width="1600" height="4920" viewBox="0 0 1600 4920">
  <rect width="1600" height="4920" fill="#f3f1ed"/>
  <style>
    .tile { fill: #ffffff; stroke: #c8c4bc; stroke-width: 2; }
    .label { font-family: Arial, Helvetica, sans-serif; font-size: 18px; fill: #171717; }
  </style>

  <rect class="tile" x="0" y="0" width="800" height="820"/>
  <image href="../../../../scratchpad/remplacement-photos-aliexpress-92-2026-08-11/cadran-pilote-33-5-aiguilles-lumineuses/Sdb1507011ecb4322844a233972c55712e.webp" x="20" y="20" width="760" height="760"/>
  <text class="label" x="20" y="807">SOURCE: Sdb1507011ecb4322844a233972c55712e.webp</text>
  <rect class="tile" x="800" y="0" width="800" height="820"/>
  <image href="../cadran-pilote-33-5-aiguilles-lumineuses-v-green-dial.jpg" x="820" y="20" width="760" height="760"/>
  <text class="label" x="820" y="807">RENDU: cadran-pilote-33-5-aiguilles-lumineuses-v-green-dial.jpg</text>

  <rect class="tile" x="0" y="820" width="800" height="820"/>
  <image href="../../../../scratchpad/remplacement-photos-aliexpress-92-2026-08-11/cadran-pilote-33-5-aiguilles-lumineuses/Sdc3aab4eed1c44a8a8946e82c6157f9aL.webp" x="20" y="840" width="760" height="760"/>
  <text class="label" x="20" y="1627">SOURCE: Sdc3aab4eed1c44a8a8946e82c6157f9aL.webp</text>
  <rect class="tile" x="800" y="820" width="800" height="820"/>
  <image href="../cadran-pilote-33-5-aiguilles-lumineuses-v-hands-a.jpg" x="820" y="840" width="760" height="760"/>
  <text class="label" x="820" y="1627">RENDU: cadran-pilote-33-5-aiguilles-lumineuses-v-hands-a.jpg</text>

  <rect class="tile" x="0" y="1640" width="800" height="820"/>
  <image href="../../../../scratchpad/remplacement-photos-aliexpress-92-2026-08-11/cadran-pilote-33-5-aiguilles-lumineuses/Sf71e5e2cee0d4162a367ac9a6e5798cb3.webp" x="20" y="1660" width="760" height="760"/>
  <text class="label" x="20" y="2447">SOURCE: Sf71e5e2cee0d4162a367ac9a6e5798cb3.webp</text>
  <rect class="tile" x="800" y="1640" width="800" height="820"/>
  <image href="../cadran-pilote-33-5-aiguilles-lumineuses-v-hands-b.jpg" x="820" y="1660" width="760" height="760"/>
  <text class="label" x="820" y="2447">RENDU: cadran-pilote-33-5-aiguilles-lumineuses-v-hands-b.jpg</text>

  <rect class="tile" x="0" y="2460" width="800" height="820"/>
  <image href="../../../../scratchpad/remplacement-photos-aliexpress-92-2026-08-11/cadran-pilote-33-5-aiguilles-lumineuses/S265f9f671f7d489bb5439c40f89ffa505.webp" x="20" y="2480" width="760" height="760"/>
  <text class="label" x="20" y="3267">SOURCE: S265f9f671f7d489bb5439c40f89ffa505.webp</text>
  <rect class="tile" x="800" y="2460" width="800" height="820"/>
  <image href="../cadran-pilote-33-5-aiguilles-lumineuses-v-hands-c.jpg" x="820" y="2480" width="760" height="760"/>
  <text class="label" x="820" y="3267">RENDU: cadran-pilote-33-5-aiguilles-lumineuses-v-hands-c.jpg</text>

  <rect class="tile" x="0" y="3280" width="800" height="820"/>
  <image href="../../../../scratchpad/remplacement-photos-aliexpress-92-2026-08-11/cadran-pilote-33-5-aiguilles-lumineuses/S07331f8c09d14e07ae7430951b2edb97M.webp" x="20" y="3300" width="760" height="760"/>
  <text class="label" x="20" y="4087">SOURCE: S07331f8c09d14e07ae7430951b2edb97M.webp</text>
  <rect class="tile" x="800" y="3280" width="800" height="820"/>
  <image href="../cadran-pilote-33-5-aiguilles-lumineuses-v-silver-dial-hands.jpg" x="820" y="3300" width="760" height="760"/>
  <text class="label" x="820" y="4087">RENDU: cadran-pilote-33-5-aiguilles-lumineuses-v-silver-dial-hands.jpg</text>

  <rect class="tile" x="0" y="4100" width="800" height="820"/>
  <image href="../../../../scratchpad/remplacement-photos-aliexpress-92-2026-08-11/cadran-pilote-33-5-aiguilles-lumineuses/S2faf9df0196d4188895526b1766448c6W.webp" x="20" y="4120" width="760" height="760"/>
  <text class="label" x="20" y="4907">SOURCE: S2faf9df0196d4188895526b1766448c6W.webp</text>
  <rect class="tile" x="800" y="4100" width="800" height="820"/>
  <image href="../cadran-pilote-33-5-aiguilles-lumineuses-v-silver-dial.jpg" x="820" y="4120" width="760" height="760"/>
  <text class="label" x="820" y="4907">RENDU: cadran-pilote-33-5-aiguilles-lumineuses-v-silver-dial.jpg</text>
</svg>
